<?xml version="1.0" encoding="iso-8859-1"?>
<!-- Generator: Adobe Illustrator 21.0.0, SVG Export Plug-In . SVG Version: 6.00 Build 0)  -->
<svg version="1.1" xmlns="http://www.w3.org/2000/svg" xmlns:xlink="http://www.w3.org/1999/xlink" x="0px" y="0px" width="720px"
	 height="720px" viewBox="0 0 720 720" enable-background="new 0 0 720 720" xml:space="preserve">
<g id="Layer_1">
</g>
<g id="Layer_2">
	<g>
		<g>
			<g>
				<path fill="#789CA8" d="M578.559,598.434c-12.515,33.426-59.7,69.661-99.085,60.394c-8.777-2.065-14.629-6.81-18.289-13.298
					c-6.625-11.762-6.037-29.238-2.593-46.725c0,0-8.327,4.863-23.984,9.844c-0.499,1.605-1.018,3.2-1.546,4.795
					c-0.245,0.763-0.499,1.526-0.753,2.29c-0.47,1.409-1.067,2.75-1.771,4.012c-2.965,5.294-7.916,9.286-13.836,11.028
					c-11.038,3.249-28.955,6.576-50.433,3.249c-3.063-0.47-5.901-1.526-8.396-3.043c-2.505,1.517-5.343,2.564-8.415,3.043
					c-21.479,3.327-39.395,0-50.414-3.249c-7.349-2.163-13.2-7.769-15.627-15.04c-0.793-2.348-1.546-4.716-2.29-7.085
					c-15.666-4.981-23.974-9.844-23.974-9.844c2.172,11.067,3.21,22.124,1.986,31.734v0.01
					c-1.761,13.954-8.259,24.845-22.878,28.279c-52.635,12.388-119.214-56.5-98.303-91.345c3.131-5.196,6.703-9.061,10.548-11.879
					c-5.235-15.735-6.517-32.898,2.603-47.723c16.723-27.154,43.319-24.365,58.829-19.659c3.268-17.496,8.543-33.417,13.044-44.993
					c38.887,19.981,85.259,31.557,135.017,31.557c49.67,0,95.935-11.547,134.782-31.45c4.482,11.566,9.756,27.438,12.985,44.885
					c15.519-4.697,42.125-7.515,58.848,19.659c9.13,14.825,7.848,31.988,2.603,47.723c3.846,2.818,7.447,6.683,10.568,11.879
					C583.05,576.261,582.766,587.191,578.559,598.434z"/>
			</g>
		</g>
		<path fill="#A9BFC4" d="M572.981,362.346c-0.89,2.182-1.84,4.335-2.838,6.468c-10.421,22.33-26.616,42.047-47.752,56.794
			c-9.286,6.458-19.169,12.408-29.61,17.731c-32.076,16.429-69.211,27.174-109.145,30.413c-8.425,0.685-16.977,1.037-25.637,1.037
			c-9.071,0-18.034-0.382-26.861-1.145c-39.562-3.356-76.364-14.071-108.156-30.413c-11.38-5.812-22.115-12.349-32.096-19.541
			c-19.874-14.267-35.207-33.133-45.227-54.416c-1.076-2.251-2.074-4.54-3.024-6.85c-8.269-20.236-11.899-42.36-10.255-64.612
			c0.538-7.603,1.712-15.226,3.523-22.8c10.676-44.63,28.769-84.897,52.38-118.196c2.857-4.071,5.812-8.043,8.846-11.889
			c7.936-10.04,16.987-19.023,26.939-26.802c19.502-15.304,42.429-26.048,66.941-31.469c21.312-4.716,43.779-7.241,66.99-7.241
			c23.211,0,45.677,2.525,67,7.241c24.502,5.421,47.449,16.165,66.951,31.469c9.942,7.779,19.003,16.762,26.919,26.821
			c3.033,3.846,5.979,7.799,8.846,11.87c23.191,32.741,41.078,72.215,51.823,115.955c2.065,8.366,3.346,16.782,3.885,25.168
			C584.9,320.152,581.24,342.168,572.981,362.346z"/>
		<path fill="#789CA8" d="M679.028,288.76c-12.247,20.483-31.212,26.823-50.521,26.498c0,0,7.153,58.342-55.525,47.089
			c8.255-20.176,11.921-42.194,10.44-64.412c-0.542-8.381-1.824-16.798-3.883-25.161c-10.747-43.748-28.629-83.215-51.822-115.962
			c-2.872-4.064-5.816-8.02-8.851-11.867c-7.911-10.061-16.979-19.038-26.913-26.823c11.271-23.554,36.685-61.612,82.312-58.234
			c19.959,1.463,29.189,25.721,15.552,40.37c-0.199,0.217-0.397,0.434-0.614,0.65c0,0,72.377-13.872,89.121,49.835
			c6.792,25.83-9.248,36.27-23.951,39.395C654.372,190.138,713.221,231.592,679.028,288.76z"/>
		<path fill="#BBCCD3" d="M583.422,297.936c-0.542-8.381-1.824-16.798-3.883-25.161c-10.747-43.748-28.629-83.215-51.822-115.962
			c18.731-8.544,48.787-13.656,73.732,21.549C639.886,232.621,617.651,277.128,583.422,297.936z"/>
		<path fill="#789CA8" d="M224.065,118.122c-9.952,7.785-19.002,16.762-26.931,26.805c-3.035,3.847-5.997,7.821-8.851,11.885
			c-23.608,33.307-41.707,73.569-52.382,118.202c-1.806,7.568-2.98,15.191-3.522,22.795c-1.644,22.253,1.987,44.38,10.26,64.61
			c-62.262,10.946-55.145-47.162-55.145-47.162c-19.309,0.325-38.275-6.015-50.521-26.498
			c-34.193-57.168,24.656-98.622,24.656-98.622c-14.703-3.125-30.743-13.565-23.951-39.395
			c16.744-63.707,89.121-49.835,89.121-49.835c-0.217-0.217-0.415-0.433-0.614-0.65c-13.637-14.649-4.407-38.907,15.552-40.37
			C187.362,56.51,212.776,94.568,224.065,118.122z"/>
		<path fill="#BBCCD3" d="M188.283,156.812c-23.608,33.307-41.707,73.569-52.382,118.202c-1.806,7.568-2.98,15.191-3.522,22.795
			c-34.12-20.862-56.175-65.297-17.828-119.448C139.496,143.157,169.552,148.269,188.283,156.812z"/>
		<path fill="#2C333F" d="M412.378,264.39c-2.91-23.514-15.025-42.607-31.201-49.175l0,0c-14.947-6.068-31.671-6.068-46.617,0l0,0
			c-16.176,6.568-28.291,25.661-31.201,49.175l-6.207,50.155c-1.4,11.312,5.598,21.973,16.533,25.188v0
			c28.845,8.481,59.522,8.481,88.367,0l0.001,0c10.935-3.215,17.933-13.876,16.533-25.188L412.378,264.39z"/>
		<g>
			<g>
				<ellipse fill="#E57373" cx="196.199" cy="309.953" rx="20.777" ry="12.143"/>
				<ellipse fill="#E57373" cx="519.537" cy="309.953" rx="20.777" ry="12.143"/>
			</g>
		</g>
		<path fill="#2C333F" d="M246.178,196.489c-5.32,4.68-13.018,5.47-19.228,2.058l0,0c-11.003-5.755-12.655-20.745-3.267-28.872
			c5.785-5.008,13.301-10.136,22.794-14.171c10.405-4.423,22.226,1.959,24.179,13.095l0,0c1.403,8-2.842,15.992-10.334,19.129
			C254.195,190.293,249.554,193.518,246.178,196.489z"/>
		<path fill="#2C333F" d="M471.465,196.489c5.32,4.68,13.018,5.47,19.228,2.058l0,0c11.003-5.755,12.655-20.745,3.267-28.872
			c-5.785-5.008-13.301-10.136-22.794-14.171c-10.405-4.423-22.226,1.959-24.179,13.095l0,0c-1.403,8,2.842,15.992,10.334,19.129
			C463.447,190.293,468.088,193.518,471.465,196.489z"/>
		<path fill="#BACBD2" d="M253.248,647.615c-3.689,5.421-9.179,9.374-16.987,11.214c-35.902,8.454-78.292-20.911-94.976-51.5
			c0.431-15.647,7.623-32.096,35.804-32.438C205.536,574.548,252.593,607.828,253.248,647.615z"/>
		<path fill="#BACBD2" d="M578.559,598.434c-12.515,33.426-59.7,69.661-99.085,60.394c-8.777-2.065-14.629-6.81-18.289-13.298
			c5.627-39.298,52.028-70.982,80.709-70.64C565.28,575.175,575.124,585.85,578.559,598.434z"/>
		<path fill="#BBCCD3" d="M385.271,488.526c-10.138,24.444-20.891,54.68-27.663,75.826c-6.4-21.283-15.206-47.028-27.154-75.826
			l0.685-14.883c8.826,0.763,17.79,1.145,26.861,1.145c8.66,0,17.212-0.352,25.637-1.037L385.271,488.526z"/>
		<path fill="#5C7F89" d="M257.153,598.806c2.172,11.067,3.21,22.124,1.986,31.734l-23.631-68.213l39.004,17.936l6.615,28.387
			C265.46,603.669,257.153,598.806,257.153,598.806z"/>
		<path fill="#5C7F89" d="M457.94,598.806c-2.172,11.067-3.21,22.124-1.987,31.734l23.631-68.213l-39.004,17.936l-6.615,28.387
			C449.633,603.669,457.94,598.806,457.94,598.806z"/>
		<path fill="#789CA8" d="M570.143,368.814c-10.421,22.33-26.616,42.047-47.752,56.794c-9.286,6.458-19.169,12.408-29.61,17.731
			c-32.076,16.429-69.211,27.174-109.145,30.413c-8.425,0.685-16.977,1.037-25.637,1.037c-9.071,0-18.034-0.382-26.861-1.145
			c-39.562-3.356-76.364-14.071-108.156-30.413c-11.38-5.812-22.115-12.349-32.096-19.541
			c-19.874-14.267-35.207-33.133-45.227-54.416c32.849,31.841,104.183,85.181,213.299,85.181
			C459.433,454.454,531.629,404.315,570.143,368.814z"/>
		<path fill="#5C7F89" d="M440.577,580.263l-6.615,28.387l-0.9,4.795c-0.245,0.763-0.499,1.526-0.753,2.29
			c-0.47,1.409-1.067,2.75-1.771,4.012c-2.965,5.294-7.916,9.286-13.836,11.028c-11.038,3.249-28.955,6.576-50.433,3.249
			c-3.063-0.47-5.901-1.526-8.396-3.043c-2.505,1.517-5.343,2.564-8.415,3.043c-21.479,3.327-39.395,0-50.414-3.249
			c-7.349-2.163-13.2-7.769-15.627-15.04c-0.793-2.348-1.546-4.716-2.29-7.085l-6.605-28.367
			c0.568,1.106,22.154,42.36,94.976,28.289C369.497,608.572,411.857,619.893,440.577,580.263z"/>
		<g>
			<path fill="#2C333F" d="M682.884,216.007c-6.616-11.098-14.804-19.384-20.265-24.216c6.166-2.355,12.629-6.378,16.859-13.245
				c4.745-7.703,5.629-17.392,2.63-28.798c-9.15-34.816-34.293-47.296-53.773-51.633c-12.129-2.701-23.442-2.654-30.901-2.118
				c3.348-6.915,3.717-14.992,0.778-22.48c-3.938-10.034-13.004-16.752-23.658-17.533c-45.314-3.35-71.486,31.918-83.999,56.162
				c-18.995-14.024-41.266-24.125-64.71-29.312c-21.999-4.866-44.825-7.333-67.845-7.333c-23.023,0-45.846,2.467-67.835,7.333
				c-23.436,5.183-45.707,15.286-64.703,29.314c-12.53-24.245-38.73-59.528-84.012-56.164c-10.658,0.781-19.724,7.5-23.662,17.533
				c-2.94,7.492-2.569,15.572,0.774,22.48c-7.457-0.534-18.771-0.582-30.896,2.118c-19.481,4.338-44.624,16.817-53.774,51.633
				c-2.999,11.406-2.114,21.096,2.631,28.798c4.23,6.867,10.694,10.889,16.859,13.245c-5.461,4.832-13.65,13.118-20.265,24.216
				c-10.07,16.891-18.157,43.573,0.497,74.762c10.836,18.124,27.549,27.655,49.725,28.371c-0.18,8.159,1.017,25.886,13.406,37.646
				c7.659,7.269,18.145,10.921,31.289,10.921c3.839,0,7.916-0.328,12.204-0.952c10.462,24.119,27.123,44.863,48.362,60.109
				c9.202,6.631,19.114,12.748,29.488,18.224c-3.634,9.714-8.058,23.206-11.174,38.247c-16.358-4.013-42.334-4.789-59.136,22.495
				c-8.213,13.351-9.494,29.619-3.817,48.386c-3.529,3.017-6.669,6.79-9.357,11.253c-8.498,14.159-4.948,33.816,9.74,53.93
				c17.434,23.875,48.481,44.843,78.753,44.841c4.722,0,9.432-0.511,14.061-1.601c15.019-3.53,31.05-16.393,25.155-56.912
				c3.778,1.694,9.024,3.828,15.68,6.021c0.561,1.745,1.129,3.489,1.71,5.227c0.439,1.312,0.984,2.573,1.607,3.786
				c2.217,4.325,5.545,7.965,9.617,10.565c2.149,1.372,4.497,2.464,7.002,3.203c0.717,0.211,1.469,0.422,2.237,0.631
				c0.018,0.005,0.037,0.01,0.055,0.015c1.544,0.42,3.187,0.831,4.93,1.223c0.013,0.003,0.026,0.006,0.039,0.009
				c0.835,0.188,1.694,0.37,2.573,0.547c0.058,0.012,0.115,0.023,0.173,0.035c1.761,0.352,3.609,0.677,5.535,0.968
				c0.154,0.023,0.307,0.046,0.462,0.069c1.886,0.278,3.845,0.52,5.876,0.718c0.22,0.021,0.442,0.041,0.663,0.061
				c0.829,0.076,1.67,0.144,2.521,0.205c0.216,0.015,0.43,0.033,0.647,0.047c1.012,0.066,2.039,0.121,3.082,0.162
				c0.24,0.01,0.484,0.015,0.725,0.023c0.83,0.028,1.668,0.047,2.516,0.058c0.324,0.004,0.646,0.009,0.973,0.01
				c0.197,0.001,0.39,0.006,0.589,0.006c0.302,0,0.617-0.015,0.922-0.017c0.927-0.007,1.861-0.022,2.807-0.051
				c0.498-0.015,0.999-0.036,1.502-0.057c0.93-0.04,1.869-0.093,2.816-0.156c0.513-0.034,1.024-0.067,1.541-0.108
				c0.999-0.079,2.01-0.178,3.027-0.285c0.473-0.049,0.94-0.091,1.417-0.146c1.341-0.157,2.697-0.338,4.066-0.546
				c0.147-0.022,0.289-0.036,0.436-0.058c0.642-0.099,1.273-0.228,1.899-0.37c0.094-0.021,0.188-0.044,0.282-0.066
				c1.276-0.303,2.516-0.694,3.716-1.17c0.036-0.014,0.071-0.029,0.106-0.043c0.614-0.246,1.219-0.51,1.81-0.8
				c2.442,1.206,5.055,2.027,7.791,2.447c0.002,0,0.004,0.001,0.006,0.002c0.058,0.009,0.113,0.014,0.171,0.023
				c1.462,0.224,2.906,0.415,4.336,0.582c0.477,0.056,0.945,0.097,1.419,0.147c1.007,0.105,2.009,0.203,2.999,0.282
				c0.54,0.043,1.074,0.078,1.609,0.113c0.91,0.06,1.813,0.111,2.708,0.15c0.545,0.024,1.087,0.046,1.625,0.062
				c0.879,0.026,1.746,0.04,2.607,0.048c0.351,0.003,0.714,0.019,1.062,0.019c0.23,0,0.454-0.006,0.682-0.007
				c0.243-0.002,0.483-0.005,0.724-0.008c0.981-0.011,1.95-0.033,2.907-0.068c0.126-0.005,0.255-0.007,0.381-0.012
				c1.118-0.043,2.218-0.102,3.301-0.174c0.086-0.006,0.169-0.013,0.255-0.018c1.019-0.07,2.022-0.152,3.009-0.244
				c0.102-0.01,0.206-0.019,0.308-0.028c2.135-0.205,4.191-0.46,6.165-0.753c0.056-0.008,0.111-0.017,0.167-0.025
				c2.003-0.3,3.921-0.637,5.746-1.003c0.008-0.002,0.016-0.003,0.025-0.005c0.917-0.184,1.811-0.374,2.681-0.569
				c0.007-0.002,0.015-0.003,0.022-0.005c1.676-0.377,3.259-0.772,4.751-1.175c0.141-0.038,0.28-0.076,0.419-0.114
				c0.653-0.179,1.291-0.359,1.906-0.539c0.049-0.014,0.103-0.029,0.152-0.043c7.008-2.065,12.829-6.814,16.261-13.077
				c0.78-1.419,1.439-2.914,1.961-4.476c0.581-1.738,1.15-3.481,1.71-5.226c6.657-2.195,11.91-4.33,15.691-6.025
				c-2.617,17.935-1.162,31.949,4.346,41.729c4.442,7.874,11.44,12.983,20.801,15.185c19.199,4.517,41.456-0.715,62.673-14.732
				c19.106-12.621,34.423-30.603,40.974-48.101c4.905-13.105,4.531-24.978-1.083-34.339c-2.668-4.441-5.814-8.215-9.374-11.252
				c5.686-18.764,4.405-35.032-3.818-48.385c-16.781-27.267-42.774-26.499-59.148-22.494c-2.54-12.365-6.284-25.16-11.133-38.13
				c9.297-4.902,18.353-10.401,26.964-16.389c22.409-15.637,39.889-37.078,50.742-62.125c4.434,0.663,8.644,1.012,12.6,1.012
				c13.116,0,23.588-3.637,31.242-10.877c12.432-11.758,13.63-29.518,13.448-37.687c22.171-0.719,38.889-10.25,49.725-28.371
				l-0.001,0C701.041,259.58,692.954,232.898,682.884,216.007z M102.164,351.138c-13.334-12.617-10.812-35.183-10.785-35.404
				c0.138-1.124-0.218-2.253-0.976-3.095c-0.743-0.825-1.801-1.295-2.909-1.295c-0.022,0-0.044,0-0.066,0
				c-21.284,0.367-37.125-7.915-47.097-24.593c-13.339-22.302-13.546-44.684-0.617-66.523c9.861-16.658,24.029-26.791,24.168-26.89
				c1.272-0.896,1.892-2.461,1.58-3.986c-0.312-1.525-1.498-2.719-3.021-3.043c-6.269-1.332-14.698-4.473-19.254-11.869
				c-3.578-5.809-4.159-13.447-1.725-22.702c6.52-24.81,22.561-40.263,47.674-45.93c19.189-4.33,36.753-1.088,36.925-1.055
				c1.689,0.322,3.39-0.493,4.195-2.012c0.805-1.518,0.525-3.385-0.69-4.601c-0.176-0.175-0.336-0.351-0.517-0.549
				c-5.336-5.732-6.859-13.861-3.974-21.214c2.87-7.313,9.206-12.018,16.95-12.586c41.65-3.077,65.806,30.785,77.139,53.235
				c-0.294,0.239-0.579,0.488-0.871,0.729c-0.373,0.308-0.742,0.62-1.112,0.931c-0.825,0.694-1.645,1.394-2.456,2.104
				c-0.401,0.351-0.8,0.705-1.198,1.06c-0.773,0.69-1.539,1.387-2.299,2.092c-0.407,0.378-0.813,0.756-1.217,1.138
				c-0.742,0.702-1.476,1.413-2.205,2.129c-0.4,0.393-0.8,0.784-1.196,1.181c-0.724,0.726-1.437,1.461-2.146,2.2
				c-0.385,0.4-0.772,0.798-1.152,1.202c-0.709,0.753-1.406,1.518-2.1,2.284c-0.367,0.405-0.739,0.806-1.102,1.214
				c-0.689,0.776-1.364,1.565-2.038,2.354c-0.355,0.415-0.717,0.825-1.068,1.244c-0.627,0.749-1.239,1.512-1.852,2.273
				c-0.363,0.449-0.736,0.889-1.094,1.342c-1.734,2.198-3.451,4.457-5.142,6.747c-1.3,1.758-2.58,3.527-3.825,5.299
				c-3.84,5.418-7.516,11.042-11.055,16.815c-10.336,16.857-19.371,35.138-26.872,54.43c-6.043,15.541-11.101,31.724-15.068,48.312
				c-0.573,2.4-1.078,4.816-1.529,7.238c-0.616,3.307-1.121,6.627-1.504,9.944c-0.014,0.124-0.032,0.249-0.046,0.373
				c-0.001,0.011-0.002,0.021-0.003,0.032c-0.219,1.945-0.399,3.889-0.537,5.828c-0.102,1.382-0.181,2.766-0.243,4.15
				c-0.01,0.226-0.013,0.452-0.022,0.678c-0.046,1.136-0.082,2.273-0.101,3.41c-0.007,0.394-0.004,0.789-0.007,1.183
				c-0.008,0.971-0.013,1.941-0.002,2.911c0.005,0.463,0.019,0.926,0.029,1.389c0.019,0.903,0.041,1.805,0.077,2.707
				c0.02,0.499,0.047,0.998,0.072,1.497c0.043,0.866,0.09,1.732,0.149,2.598c0.035,0.519,0.076,1.038,0.116,1.557
				c0.066,0.847,0.138,1.694,0.219,2.54c0.05,0.527,0.104,1.053,0.16,1.579c0.089,0.838,0.186,1.675,0.289,2.512
				c0.065,0.53,0.132,1.059,0.204,1.589c0.112,0.833,0.233,1.665,0.36,2.497c0.08,0.527,0.159,1.053,0.245,1.579
				c0.136,0.835,0.283,1.668,0.434,2.501c0.094,0.519,0.185,1.037,0.284,1.555c0.162,0.843,0.336,1.684,0.512,2.524
				c0.105,0.503,0.206,1.006,0.317,1.508c0.191,0.866,0.397,1.729,0.604,2.592c0.113,0.472,0.219,0.945,0.337,1.415
				c0.234,0.937,0.485,1.869,0.738,2.801c0.106,0.392,0.204,0.786,0.313,1.177c0.364,1.299,0.744,2.594,1.143,3.883
				c0.152,0.492,0.319,0.978,0.476,1.468c0.256,0.798,0.509,1.597,0.779,2.391c0.227,0.667,0.469,1.329,0.706,1.992
				c0.187,0.525,0.365,1.053,0.558,1.575C121.699,361.209,109.921,358.479,102.164,351.138z M561.282,509.934
				c6.655,10.807,7.867,24.125,3.659,39.63c-22.999-12.209-50.64,4.047-51.882,4.793c-1.852,1.111-2.452,3.511-1.344,5.365
				c0.733,1.225,2.031,1.904,3.363,1.904c0.683,0,1.374-0.179,2.003-0.554c0.281-0.167,28.276-16.567,47.794-2.336
				c0.01,0.007,0.018,0.017,0.028,0.024c3.647,2.673,6.852,6.286,9.525,10.736c5.486,9.148,3.28,20.04,0.463,27.565
				c-12.422,33.177-58.484,66.434-94.523,57.957c-7.246-1.704-12.406-5.437-15.774-11.409c-5.329-9.461-6.057-24.281-2.164-44.047
				c0.297-1.508-0.318-3.049-1.569-3.942c-1.251-0.893-2.912-0.969-4.241-0.197c-0.066,0.039-5.64,3.239-15.999,7.033
				c18.175-60.631,24.346-121.4,24.411-122.056c0.213-2.151-1.358-4.068-3.509-4.281c-2.151-0.217-4.068,1.358-4.281,3.509
				c-0.067,0.673-6.66,65.598-26.331,127.761c-0.01,0.03-0.03,0.056-0.039,0.087c-0.811,2.584-1.555,4.876-2.28,7.022
				c-0.51,1.534-1.206,2.98-2.06,4.314c-2.509,3.912-6.374,6.859-10.946,8.207c-0.142,0.042-0.298,0.083-0.442,0.125
				c-8.804,2.549-21.664,5.009-37.046,4.179c-3.386-0.183-6.901-0.536-10.516-1.072c-0.242-0.036-0.479-0.062-0.722-0.099
				c-0.475-0.073-0.94-0.178-1.403-0.285c1.045-1.097,2.014-2.286,2.887-3.572c4.27-6.289,5.751-14.139,4.061-21.539
				c-2.457-10.764-5.891-24.266-10.589-40.033c0.286-0.367,0.517-0.786,0.66-1.258c7.359-24.235,16.246-48.943,26.413-73.436
				c0.829-1.997-0.118-4.287-2.114-5.116c-1.997-0.828-4.288,0.118-5.116,2.114c-8.971,21.612-16.956,43.394-23.789,64.883
				c-6.074-19.1-13.863-40.943-23.8-64.883c-0.829-1.996-3.119-2.941-5.116-2.114c-1.996,0.829-2.943,3.119-2.114,5.116
				c20.834,50.19,32.128,91.04,37.933,116.469c1.207,5.289,0.149,10.902-2.905,15.4c-1.737,2.558-3.991,4.587-6.582,6.032
				c-0.316,0.177-0.63,0.357-0.955,0.515c-0.272,0.132-0.554,0.243-0.833,0.362c-0.304,0.13-0.605,0.268-0.916,0.383
				c-0.295,0.108-0.6,0.192-0.901,0.285c-0.312,0.097-0.619,0.206-0.938,0.288c-0.415,0.106-0.841,0.182-1.265,0.262
				c-0.208,0.039-0.41,0.094-0.621,0.127c-1.574,0.244-3.12,0.439-4.653,0.612c-4.751,0.535-9.305,0.755-13.609,0.72
				c-12.523-0.103-22.999-2.272-30.447-4.467c-6.137-1.806-11.005-6.488-13.023-12.537c-0.105-0.311-0.206-0.62-0.31-0.93
				c-0.14-0.422-0.279-0.843-0.418-1.266c-0.538-1.646-1.052-3.268-1.536-4.81c-0.012-0.038-0.036-0.071-0.049-0.109
				c-19.655-62.129-26.257-127.065-26.323-127.739c-0.214-2.151-2.131-3.726-4.281-3.509c-2.151,0.213-3.722,2.13-3.509,4.281
				c0.065,0.656,6.235,61.424,24.41,122.056c-10.357-3.793-15.916-6.992-15.979-7.028c-1.329-0.778-2.99-0.705-4.244,0.187
				c-1.255,0.891-1.871,2.435-1.574,3.946c6.387,32.499,0.349,51.157-17.947,55.458c-30.664,7.216-66.524-15.345-84.7-40.236
				c-12.554-17.192-16.049-34.121-9.353-45.279c2.701-4.484,5.901-8.098,9.509-10.743c0.005-0.004,0.009-0.008,0.014-0.012
				c19.52-14.254,47.53,2.156,47.807,2.322c0.631,0.378,1.324,0.558,2.01,0.558c1.33,0,2.627-0.678,3.36-1.901
				c1.112-1.854,0.511-4.258-1.343-5.37c-1.242-0.745-28.884-17.001-51.883-4.792c-4.201-15.509-2.989-28.828,3.656-39.631
				c9.844-15.984,23.305-20.886,36.116-20.886c6.419,0,12.675,1.231,18.229,2.916c0.008,0.002,0.014,0.007,0.021,0.009
				c6.947,2.098,11.599,4.612,11.646,4.637c0.595,0.325,1.239,0.48,1.873,0.48c1.383,0,2.724-0.735,3.436-2.034
				c1.039-1.896,0.344-4.275-1.552-5.313c-0.182-0.1-3.908-2.121-9.766-4.163c2.935-14.391,7.136-27.395,10.655-36.9
				c0.591,0.292,1.188,0.575,1.782,0.862c0.302,0.146,0.602,0.293,0.905,0.438c1.943,0.932,3.901,1.843,5.871,2.732
				c0.061,0.027,0.122,0.054,0.183,0.082c25.568,11.505,53.377,19.31,82.279,23.148c0.112,0.015,0.225,0.03,0.337,0.044
				c2.341,0.308,4.689,0.595,7.044,0.851c0.027,0.003,0.053,0.005,0.08,0.008c2.393,0.26,4.793,0.491,7.199,0.697
				c0.007,0.001,0.015,0.001,0.022,0.002c0.004,0,0.007,0,0.011,0.001c2.064,0.176,4.133,0.331,6.206,0.467
				c0.427,0.028,0.854,0.053,1.282,0.079c1.799,0.111,3.601,0.208,5.406,0.289c0.266,0.012,0.53,0.027,0.796,0.038
				c1.987,0.084,3.978,0.144,5.971,0.191c0.476,0.011,0.951,0.02,1.428,0.029c2.03,0.038,4.062,0.065,6.098,0.065
				c1.941,0,3.879-0.024,5.815-0.059c0.472-0.009,0.943-0.018,1.415-0.029c1.843-0.041,3.685-0.095,5.523-0.168
				c0.106-0.004,0.212-0.007,0.318-0.011c1.895-0.077,3.786-0.176,5.674-0.287c0.566-0.033,1.13-0.069,1.695-0.105
				c1.475-0.094,2.949-0.199,4.42-0.314c0.363-0.028,0.73-0.048,1.093-0.078c0.099-0.008,0.198-0.02,0.297-0.028
				c2.008-0.166,4.01-0.356,6.009-0.56c0.603-0.061,1.206-0.122,1.808-0.187c2.023-0.218,4.042-0.454,6.056-0.71
				c0.389-0.05,0.778-0.102,1.167-0.154c31.312-4.103,61.37-12.865,88.704-25.944c0.237-0.113,0.473-0.228,0.71-0.342
				c0.652-0.314,1.307-0.624,1.956-0.943c4.644,12.543,8.19,24.885,10.597,36.8c-5.851,2.043-9.563,4.063-9.744,4.163
				c-1.893,1.04-2.583,3.416-1.544,5.31c0.711,1.298,2.053,2.033,3.436,2.033c0.635,0,1.279-0.155,1.875-0.481
				c0.046-0.025,4.68-2.538,11.623-4.634c0.013-0.004,0.023-0.011,0.035-0.015C523.595,486.925,546.532,485.967,561.282,509.934z
				 M520.157,422.394c-9.272,6.448-19.081,12.322-29.16,17.46c-1.866,0.956-3.753,1.886-5.651,2.8
				c-0.255,0.123-0.51,0.247-0.766,0.37c-24.535,11.719-51.684,19.975-79.782,24.302c-0.114,0.017-0.228,0.034-0.342,0.051
				c-2.271,0.347-4.547,0.67-6.83,0.966c-0.018,0.002-0.035,0.005-0.053,0.007c-2.033,0.263-4.073,0.495-6.114,0.717
				c-0.581,0.063-1.161,0.127-1.743,0.186c-1.938,0.199-3.879,0.381-5.822,0.542c-0.574,0.048-1.149,0.09-1.724,0.135
				c-1.449,0.112-2.901,0.216-4.357,0.308c-0.474,0.03-0.947,0.063-1.421,0.091c-1.941,0.114-3.887,0.211-5.836,0.289
				c-0.222,0.009-0.444,0.015-0.665,0.024c-1.906,0.072-3.815,0.127-5.724,0.164c-0.185,0.004-0.369,0.008-0.554,0.012
				c-2.108,0.037-4.216,0.056-6.322,0.051c-0.009,0-0.018,0-0.028,0c-1.998-0.004-3.993-0.032-5.984-0.074
				c-0.296-0.006-0.593-0.012-0.889-0.019c-2.013-0.048-4.021-0.113-6.022-0.2c-0.132-0.006-0.264-0.014-0.397-0.02
				c-1.815-0.081-3.622-0.181-5.424-0.293c-0.43-0.027-0.86-0.054-1.289-0.082c-1.938-0.129-3.869-0.271-5.786-0.437
				c-2.257-0.191-4.51-0.412-6.759-0.654c-0.192-0.021-0.384-0.041-0.576-0.062c-30.552-3.348-60.291-11.338-87.102-23.382
				c-0.036-0.016-0.073-0.033-0.11-0.049c-1.919-0.863-3.82-1.751-5.709-2.656c-0.322-0.155-0.644-0.311-0.965-0.467
				c-1.843-0.892-3.675-1.798-5.486-2.729c-11.163-5.701-21.79-12.172-31.593-19.235c-20.876-14.986-37.093-35.574-46.899-59.54
				c-0.004-0.01-0.005-0.021-0.009-0.032c-2.452-5.996-4.47-12.169-6.06-18.451c-3.661-14.479-5.014-29.542-3.916-44.398
				c0.156-2.205,0.375-4.416,0.642-6.628c0.368-3.043,0.84-6.087,1.414-9.117c0.407-2.148,0.859-4.29,1.369-6.42
				c4.528-18.931,10.501-37.312,17.757-54.778c5.988-14.414,12.864-28.195,20.511-41.163c0.297-0.503,0.583-1.018,0.882-1.519
				c0.064-0.108,0.132-0.212,0.196-0.319c3.945-6.586,8.091-12.957,12.431-19.078c1.258-1.792,2.542-3.567,3.84-5.322
				c1.597-2.157,3.225-4.295,4.878-6.39c1.306-1.654,2.658-3.271,4.03-4.87c6.703-7.806,14.157-14.952,22.25-21.278
				c18.885-14.82,41.49-25.445,65.37-30.727c21.435-4.744,43.689-7.149,66.144-7.149c22.452,0,44.71,2.405,66.154,7.149
				c23.893,5.286,46.501,15.911,65.384,30.73c3.314,2.593,6.509,5.327,9.594,8.172c0.335,0.309,0.68,0.61,1.012,0.922
				c0.618,0.58,1.219,1.177,1.828,1.767c0.503,0.488,1.016,0.968,1.512,1.463c1.005,1.001,1.992,2.019,2.968,3.047
				c0.086,0.091,0.177,0.179,0.263,0.27c2.447,2.588,4.79,5.268,7.047,8.015c0.682,0.831,1.368,1.66,2.032,2.504
				c2.091,2.651,4.189,5.426,6.268,8.279c0.103,0.142,0.208,0.281,0.311,0.423c0.044,0.061,0.088,0.123,0.132,0.184
				c0.678,0.937,1.351,1.878,2.017,2.823c23.095,32.606,40.805,72.243,51.217,114.631c0.092,0.372,0.175,0.747,0.263,1.121
				c1.783,7.509,2.955,15.192,3.479,22.874c0.011,0.165,0.027,0.33,0.037,0.496c1.417,21.298-2.096,42.967-10.158,62.664
				l-0.001,0.002C559.191,385.752,542.175,407.029,520.157,422.394z M675.668,286.752c-9.972,16.677-25.82,24.962-47.096,24.593
				c-1.135-0.017-2.213,0.455-2.971,1.294c-0.757,0.839-1.115,1.968-0.981,3.09c0.027,0.227,2.556,22.831-10.816,35.44
				c-7.823,7.376-19.719,10.079-35.407,8.057c0.281-0.759,0.544-1.524,0.812-2.287c0.137-0.389,0.28-0.775,0.413-1.165
				c0.376-1.101,0.736-2.208,1.086-3.318c0.06-0.189,0.125-0.376,0.184-0.565c0.406-1.304,0.793-2.614,1.163-3.929
				c0.092-0.328,0.175-0.66,0.265-0.989c0.269-0.981,0.534-1.963,0.783-2.949c0.121-0.481,0.231-0.966,0.348-1.448
				c0.203-0.839,0.405-1.678,0.594-2.521c0.119-0.534,0.228-1.07,0.341-1.605c0.169-0.798,0.337-1.596,0.493-2.397
				c0.108-0.555,0.208-1.112,0.309-1.669c0.144-0.786,0.286-1.572,0.417-2.361c0.094-0.564,0.181-1.13,0.269-1.696
				c0.122-0.786,0.24-1.573,0.349-2.361c0.078-0.565,0.152-1.13,0.224-1.696c0.101-0.794,0.196-1.589,0.284-2.385
				c0.062-0.56,0.122-1.12,0.177-1.681c0.08-0.807,0.152-1.615,0.22-2.424c0.046-0.551,0.091-1.101,0.131-1.652
				c0.059-0.824,0.108-1.649,0.154-2.474c0.03-0.536,0.061-1.072,0.085-1.609c0.038-0.853,0.063-1.705,0.086-2.558
				c0.014-0.509,0.032-1.018,0.04-1.527c0.015-0.9,0.016-1.799,0.015-2.699c-0.001-0.464,0.005-0.927,0-1.39
				c-0.011-0.999-0.039-1.998-0.07-2.997c-0.011-0.364-0.015-0.728-0.029-1.092c-0.053-1.367-0.122-2.734-0.213-4.099
				c-0.02-0.307-0.048-0.615-0.07-0.923c-0.56-7.931-1.775-15.864-3.613-23.618c-0.103-0.434-0.199-0.869-0.305-1.302
				c-10.645-43.334-28.775-83.892-52.426-117.288c-0.67-0.949-1.345-1.888-2.022-2.823c-0.063-0.088-0.125-0.176-0.189-0.264
				c-0.105-0.145-0.211-0.286-0.316-0.43c-2.11-2.9-4.266-5.752-6.442-8.51c-0.11-0.14-0.226-0.275-0.337-0.415
				c-0.858-1.084-1.728-2.159-2.616-3.222c-0.301-0.361-0.613-0.713-0.918-1.071c-0.708-0.833-1.418-1.665-2.144-2.484
				c-0.381-0.43-0.771-0.851-1.157-1.277c-0.661-0.731-1.323-1.46-1.999-2.179c-0.435-0.463-0.878-0.919-1.318-1.377
				c-0.641-0.666-1.283-1.331-1.935-1.987c-0.473-0.476-0.952-0.945-1.431-1.414c-0.639-0.627-1.281-1.25-1.931-1.867
				c-0.494-0.469-0.992-0.934-1.492-1.396c-0.66-0.611-1.326-1.217-1.996-1.818c-0.492-0.44-0.985-0.878-1.482-1.312
				c-0.722-0.631-1.451-1.254-2.185-1.873c-0.447-0.377-0.892-0.754-1.343-1.126c-0.272-0.224-0.537-0.456-0.81-0.679
				c11.316-22.45,35.46-56.319,77.127-53.235c7.742,0.568,14.077,5.272,16.947,12.586c2.885,7.353,1.363,15.482-3.995,21.237
				c-0.161,0.176-0.323,0.353-0.499,0.53c-1.213,1.215-1.49,3.079-0.687,4.596c0.804,1.517,2.504,2.334,4.191,2.014
				c0.174-0.034,17.739-3.277,36.928,1.055c25.113,5.667,41.153,21.12,47.674,45.93c2.434,9.255,1.853,16.893-1.725,22.702
				c-4.556,7.396-12.985,10.537-19.254,11.869c-1.521,0.323-2.705,1.517-3.019,3.04c-0.314,1.523,0.305,3.088,1.575,3.986
				c0.141,0.1,14.31,10.234,24.172,26.892C689.216,242.067,689.008,264.449,675.668,286.752
				C675.669,286.751,675.669,286.752,675.668,286.752z"/>
			<path fill="#2C333F" d="M416.262,263.909c-3.108-25.117-15.988-45.165-33.613-52.321c-15.98-6.488-33.581-6.489-49.563,0
				c-17.624,7.155-30.504,27.204-33.613,52.321l-6.207,50.155c-1.643,13.277,6.479,25.651,19.313,29.424
				c14.815,4.356,30.049,6.533,45.288,6.533c15.235,0,30.476-2.178,45.288-6.533c12.835-3.773,20.957-16.147,19.314-29.424
				L416.262,263.909z M400.947,335.978c-28.182,8.285-57.975,8.286-86.159,0c-9.139-2.687-14.922-11.498-13.752-20.952l6.207-50.155
				c2.719-21.965,14.019-40.032,28.789-46.029c7.041-2.859,14.439-4.288,21.836-4.288c7.398,0,14.796,1.429,21.836,4.288
				c14.771,5.997,26.071,24.064,28.79,46.029l6.207,50.155C415.871,324.48,410.087,333.291,400.947,335.978z"/>
			<path fill="#2C333F" d="M259.104,226.837c-9.053,0-16.419,9.15-16.419,20.398c0,2.162,1.753,3.914,3.914,3.914
				s3.914-1.753,3.914-3.914c0-6.813,3.934-12.569,8.591-12.569c4.65,0,8.578,5.756,8.578,12.569c0,2.162,1.753,3.914,3.914,3.914
				s3.914-1.753,3.914-3.914C275.511,235.987,268.151,226.837,259.104,226.837z"/>
			<path fill="#2C333F" d="M456.896,226.837c-9.046,0-16.406,9.15-16.406,20.398c0,2.162,1.753,3.914,3.914,3.914
				s3.914-1.753,3.914-3.914c0-6.813,3.928-12.569,8.578-12.569c4.657,0,8.591,5.756,8.591,12.569c0,2.162,1.753,3.914,3.914,3.914
				s3.914-1.753,3.914-3.914C473.315,235.987,465.949,226.837,456.896,226.837z"/>
			<path fill="#2C333F" d="M384.47,360.61c-1.753-1.232-4.185-0.804-5.439,0.934c-0.225,0.312-5.677,7.643-20.215,7.643
				c-14.387,0-19.602-7.183-19.872-7.57c-1.19-1.78-3.595-2.275-5.393-1.102c-1.81,1.182-2.32,3.607-1.138,5.417
				c0.296,0.452,7.454,11.083,26.403,11.083c18.896,0,26.341-10.563,26.649-11.013C386.675,364.234,386.224,361.841,384.47,360.61z"
				/>
			<path fill="#2C333F" d="M261.833,191.338c9.059-3.793,14.391-13.641,12.677-23.415c-1.136-6.477-5.101-11.992-10.88-15.131
				c-5.797-3.15-12.609-3.474-18.685-0.89c-8.749,3.719-16.765,8.703-23.825,14.814c-5.415,4.688-8.156,11.719-7.331,18.809
				c0.818,7.038,5.06,13.203,11.276,16.453c3.144,1.727,6.602,2.572,10.037,2.572c4.933,0,9.82-1.744,13.661-5.122
				C252.529,196.114,256.927,193.392,261.833,191.338z M228.764,195.079c-4.048-2.118-6.671-5.929-7.198-10.458
				c-0.533-4.583,1.172-8.951,4.679-11.986c6.442-5.577,13.765-10.129,21.764-13.529c1.73-0.735,3.552-1.1,5.368-1.1
				c2.245,0,4.48,0.558,6.518,1.665c3.669,1.992,6.186,5.493,6.907,9.604c1.088,6.206-2.272,12.449-7.99,14.843
				c-5.692,2.383-10.812,5.556-15.218,9.433C239.544,197.112,233.613,197.743,228.764,195.079z"/>
			<path fill="#2C333F" d="M496.522,166.716c-7.059-6.11-15.074-11.095-23.824-14.814c-6.077-2.583-12.889-2.259-18.686,0.89
				c-5.778,3.14-9.744,8.655-10.879,15.131c-1.714,9.775,3.618,19.622,12.677,23.416c4.907,2.054,9.305,4.776,13.07,8.089v0
				c3.85,3.387,8.749,5.13,13.679,5.13c3.414,0,6.843-0.837,9.949-2.542c6.286-3.288,10.527-9.453,11.345-16.491
				C504.677,178.434,501.936,171.403,496.522,166.716z M496.077,184.62c-0.527,4.529-3.15,8.341-7.268,10.496
				c-4.778,2.625-10.709,1.996-14.759-1.567v0c-4.405-3.876-9.525-7.049-15.217-9.433c-5.718-2.394-9.079-8.637-7.99-14.843
				c0.72-4.111,3.238-7.612,6.906-9.605c3.686-2.003,8.019-2.21,11.886-0.565c7.999,3.4,15.321,7.952,21.763,13.529
				C494.904,175.669,496.609,180.038,496.077,184.62z"/>
		</g>
	</g>
	<g>
	</g>
	<g>
	</g>
	<g>
	</g>
	<g>
	</g>
	<g>
	</g>
	<g>
	</g>
</g>
</svg>
